<mxfile host="65bd71144e">
    <diagram name="Caso 1" id="7AAL9iRPnZ29mzqgPaXI">
        <mxGraphModel dx="2280" dy="982" grid="1" gridSize="10" guides="1" tooltips="1" connect="1" arrows="1" fold="1" page="1" pageScale="1" pageWidth="827" pageHeight="1169" math="0" shadow="0">
            <root>
                <mxCell id="gkEWDCdBUT4R6ykhKJdt-0"/>
                <mxCell id="gkEWDCdBUT4R6ykhKJdt-1" parent="gkEWDCdBUT4R6ykhKJdt-0"/>
                <mxCell id="gkEWDCdBUT4R6ykhKJdt-2" value="" style="edgeStyle=none;html=1;fillColor=#60a917;strokeColor=#2D7600;" edge="1" parent="gkEWDCdBUT4R6ykhKJdt-1" source="gkEWDCdBUT4R6ykhKJdt-3" target="gkEWDCdBUT4R6ykhKJdt-5">
                    <mxGeometry relative="1" as="geometry"/>
                </mxCell>
                <mxCell id="gkEWDCdBUT4R6ykhKJdt-3" value="m_t = transponer(m)" style="ellipse;whiteSpace=wrap;html=1;fillColor=#60a917;fontColor=#ffffff;strokeColor=#2D7600;" vertex="1" parent="gkEWDCdBUT4R6ykhKJdt-1">
                    <mxGeometry x="270" y="30" width="120" height="80" as="geometry"/>
                </mxCell>
                <mxCell id="gkEWDCdBUT4R6ykhKJdt-4" value="" style="edgeStyle=none;html=1;fillColor=#60a917;strokeColor=#2D7600;" edge="1" parent="gkEWDCdBUT4R6ykhKJdt-1" source="gkEWDCdBUT4R6ykhKJdt-5" target="gkEWDCdBUT4R6ykhKJdt-8">
                    <mxGeometry relative="1" as="geometry"/>
                </mxCell>
                <mxCell id="gkEWDCdBUT4R6ykhKJdt-5" value="INIT i = 0" style="whiteSpace=wrap;html=1;fillColor=#60a917;fontColor=#ffffff;strokeColor=#2D7600;" vertex="1" parent="gkEWDCdBUT4R6ykhKJdt-1">
                    <mxGeometry x="270" y="140" width="120" height="60" as="geometry"/>
                </mxCell>
                <mxCell id="gkEWDCdBUT4R6ykhKJdt-6" value="" style="edgeStyle=none;html=1;fillColor=#60a917;strokeColor=#2D7600;" edge="1" parent="gkEWDCdBUT4R6ykhKJdt-1" source="gkEWDCdBUT4R6ykhKJdt-8" target="gkEWDCdBUT4R6ykhKJdt-10">
                    <mxGeometry relative="1" as="geometry"/>
                </mxCell>
                <mxCell id="gkEWDCdBUT4R6ykhKJdt-7" value="" style="edgeStyle=none;html=1;fillColor=#a20025;strokeColor=#6F0000;startArrow=none;" edge="1" parent="gkEWDCdBUT4R6ykhKJdt-1" target="gkEWDCdBUT4R6ykhKJdt-23">
                    <mxGeometry relative="1" as="geometry">
                        <mxPoint x="430" y="270" as="sourcePoint"/>
                    </mxGeometry>
                </mxCell>
                <mxCell id="nMISC580ioCfnprnbkIm-9" style="edgeStyle=none;html=1;exitX=1;exitY=0.5;exitDx=0;exitDy=0;entryX=0;entryY=0.5;entryDx=0;entryDy=0;fillColor=#a20025;strokeColor=#6F0000;" edge="1" parent="gkEWDCdBUT4R6ykhKJdt-1" source="gkEWDCdBUT4R6ykhKJdt-8" target="gkEWDCdBUT4R6ykhKJdt-23">
                    <mxGeometry relative="1" as="geometry"/>
                </mxCell>
                <mxCell id="gkEWDCdBUT4R6ykhKJdt-8" value="i &amp;lt; len(m)" style="ellipse;whiteSpace=wrap;html=1;fillColor=#60a917;fontColor=#ffffff;strokeColor=#2D7600;" vertex="1" parent="gkEWDCdBUT4R6ykhKJdt-1">
                    <mxGeometry x="290" y="230" width="80" height="80" as="geometry"/>
                </mxCell>
                <mxCell id="gkEWDCdBUT4R6ykhKJdt-9" value="" style="edgeStyle=none;html=1;fillColor=#60a917;strokeColor=#2D7600;" edge="1" parent="gkEWDCdBUT4R6ykhKJdt-1" source="gkEWDCdBUT4R6ykhKJdt-10" target="gkEWDCdBUT4R6ykhKJdt-13">
                    <mxGeometry relative="1" as="geometry"/>
                </mxCell>
                <mxCell id="gkEWDCdBUT4R6ykhKJdt-10" value="INIT n = 1" style="whiteSpace=wrap;html=1;fillColor=#60a917;fontColor=#ffffff;strokeColor=#2D7600;" vertex="1" parent="gkEWDCdBUT4R6ykhKJdt-1">
                    <mxGeometry x="270" y="340" width="120" height="60" as="geometry"/>
                </mxCell>
                <mxCell id="gkEWDCdBUT4R6ykhKJdt-11" value="" style="edgeStyle=none;html=1;fillColor=#60a917;strokeColor=#2D7600;" edge="1" parent="gkEWDCdBUT4R6ykhKJdt-1" source="gkEWDCdBUT4R6ykhKJdt-13" target="gkEWDCdBUT4R6ykhKJdt-16">
                    <mxGeometry relative="1" as="geometry"/>
                </mxCell>
                <mxCell id="gkEWDCdBUT4R6ykhKJdt-12" value="" style="edgeStyle=none;html=1;fillColor=#60a917;strokeColor=#2D7600;startArrow=none;" edge="1" parent="gkEWDCdBUT4R6ykhKJdt-1" target="gkEWDCdBUT4R6ykhKJdt-22">
                    <mxGeometry relative="1" as="geometry">
                        <Array as="points">
                            <mxPoint x="780" y="470"/>
                        </Array>
                        <mxPoint x="460" y="470" as="sourcePoint"/>
                    </mxGeometry>
                </mxCell>
                <mxCell id="gkEWDCdBUT4R6ykhKJdt-13" value="n &amp;lt; 10" style="ellipse;whiteSpace=wrap;html=1;fillColor=#60a917;fontColor=#ffffff;strokeColor=#2D7600;" vertex="1" parent="gkEWDCdBUT4R6ykhKJdt-1">
                    <mxGeometry x="290" y="430" width="80" height="80" as="geometry"/>
                </mxCell>
                <mxCell id="gkEWDCdBUT4R6ykhKJdt-14" value="" style="edgeStyle=none;html=1;fillColor=#60a917;strokeColor=#2D7600;entryX=0;entryY=0.5;entryDx=0;entryDy=0;" edge="1" parent="gkEWDCdBUT4R6ykhKJdt-1" source="gkEWDCdBUT4R6ykhKJdt-16" target="gkEWDCdBUT4R6ykhKJdt-17">
                    <mxGeometry relative="1" as="geometry">
                        <mxPoint x="640" y="610" as="targetPoint"/>
                    </mxGeometry>
                </mxCell>
                <mxCell id="gkEWDCdBUT4R6ykhKJdt-15" value="" style="edgeStyle=none;html=1;fillColor=#60a917;strokeColor=#2D7600;" edge="1" parent="gkEWDCdBUT4R6ykhKJdt-1" source="gkEWDCdBUT4R6ykhKJdt-16" target="gkEWDCdBUT4R6ykhKJdt-20">
                    <mxGeometry relative="1" as="geometry"/>
                </mxCell>
                <mxCell id="gkEWDCdBUT4R6ykhKJdt-16" value="if cantidad_apariciones(m[i],n) &amp;gt; 1 or cantidad_apariciones(m_t[i],n) &amp;gt; 1" style="ellipse;whiteSpace=wrap;html=1;fillColor=#60a917;fontColor=#ffffff;strokeColor=#2D7600;" vertex="1" parent="gkEWDCdBUT4R6ykhKJdt-1">
                    <mxGeometry x="120" y="570" width="420" height="80" as="geometry"/>
                </mxCell>
                <mxCell id="gkEWDCdBUT4R6ykhKJdt-17" value="return False" style="whiteSpace=wrap;html=1;fillColor=#60a917;fontColor=#ffffff;strokeColor=#2D7600;" vertex="1" parent="gkEWDCdBUT4R6ykhKJdt-1">
                    <mxGeometry x="600" y="580" width="120" height="60" as="geometry"/>
                </mxCell>
                <mxCell id="gkEWDCdBUT4R6ykhKJdt-18" value="True" style="text;html=1;strokeColor=none;fillColor=none;align=center;verticalAlign=middle;whiteSpace=wrap;rounded=0;" vertex="1" parent="gkEWDCdBUT4R6ykhKJdt-1">
                    <mxGeometry x="320" y="520" width="60" height="30" as="geometry"/>
                </mxCell>
                <mxCell id="gkEWDCdBUT4R6ykhKJdt-19" style="edgeStyle=none;html=1;entryX=0;entryY=0.5;entryDx=0;entryDy=0;fillColor=#60a917;strokeColor=#2D7600;" edge="1" parent="gkEWDCdBUT4R6ykhKJdt-1" source="gkEWDCdBUT4R6ykhKJdt-20" target="gkEWDCdBUT4R6ykhKJdt-13">
                    <mxGeometry relative="1" as="geometry">
                        <Array as="points">
                            <mxPoint x="140" y="770"/>
                            <mxPoint x="80" y="770"/>
                            <mxPoint x="80" y="620"/>
                            <mxPoint x="80" y="470"/>
                        </Array>
                    </mxGeometry>
                </mxCell>
                <mxCell id="gkEWDCdBUT4R6ykhKJdt-20" value="n += 1" style="rhombus;whiteSpace=wrap;html=1;fillColor=#60a917;fontColor=#ffffff;strokeColor=#2D7600;" vertex="1" parent="gkEWDCdBUT4R6ykhKJdt-1">
                    <mxGeometry x="290" y="730" width="80" height="80" as="geometry"/>
                </mxCell>
                <mxCell id="gkEWDCdBUT4R6ykhKJdt-21" style="edgeStyle=none;html=1;entryX=0;entryY=0.5;entryDx=0;entryDy=0;fillColor=#60a917;strokeColor=#2D7600;" edge="1" parent="gkEWDCdBUT4R6ykhKJdt-1" source="gkEWDCdBUT4R6ykhKJdt-22" target="gkEWDCdBUT4R6ykhKJdt-8">
                    <mxGeometry relative="1" as="geometry">
                        <Array as="points">
                            <mxPoint x="780" y="900"/>
                            <mxPoint x="40" y="900"/>
                            <mxPoint x="40" y="270"/>
                        </Array>
                    </mxGeometry>
                </mxCell>
                <mxCell id="gkEWDCdBUT4R6ykhKJdt-22" value="i += 1" style="rhombus;whiteSpace=wrap;html=1;fillColor=#60a917;fontColor=#ffffff;strokeColor=#2D7600;" vertex="1" parent="gkEWDCdBUT4R6ykhKJdt-1">
                    <mxGeometry x="740" y="700" width="80" height="80" as="geometry"/>
                </mxCell>
                <mxCell id="gkEWDCdBUT4R6ykhKJdt-23" value="return True" style="whiteSpace=wrap;html=1;fillColor=#a20025;fontColor=#ffffff;strokeColor=#6F0000;" vertex="1" parent="gkEWDCdBUT4R6ykhKJdt-1">
                    <mxGeometry x="430" y="240" width="120" height="60" as="geometry"/>
                </mxCell>
                <mxCell id="nMISC580ioCfnprnbkIm-1" value="True" style="text;html=1;strokeColor=none;fillColor=none;align=center;verticalAlign=middle;whiteSpace=wrap;rounded=0;" vertex="1" parent="gkEWDCdBUT4R6ykhKJdt-1">
                    <mxGeometry x="320" y="310" width="60" height="30" as="geometry"/>
                </mxCell>
                <mxCell id="nMISC580ioCfnprnbkIm-2" value="False" style="text;html=1;strokeColor=none;fillColor=none;align=center;verticalAlign=middle;whiteSpace=wrap;rounded=0;" vertex="1" parent="gkEWDCdBUT4R6ykhKJdt-1">
                    <mxGeometry x="320" y="680" width="60" height="30" as="geometry"/>
                </mxCell>
                <mxCell id="nMISC580ioCfnprnbkIm-5" value="" style="edgeStyle=none;html=1;fillColor=#60a917;strokeColor=#2D7600;endArrow=none;" edge="1" parent="gkEWDCdBUT4R6ykhKJdt-1" source="gkEWDCdBUT4R6ykhKJdt-13">
                    <mxGeometry relative="1" as="geometry">
                        <Array as="points"/>
                        <mxPoint x="370" y="470" as="sourcePoint"/>
                        <mxPoint x="460" y="470" as="targetPoint"/>
                    </mxGeometry>
                </mxCell>
                <mxCell id="nMISC580ioCfnprnbkIm-6" value="" style="edgeStyle=none;html=1;fillColor=#a20025;strokeColor=#6F0000;endArrow=none;" edge="1" parent="gkEWDCdBUT4R6ykhKJdt-1" source="gkEWDCdBUT4R6ykhKJdt-8">
                    <mxGeometry relative="1" as="geometry">
                        <mxPoint x="370" y="270" as="sourcePoint"/>
                        <mxPoint x="370" y="270" as="targetPoint"/>
                    </mxGeometry>
                </mxCell>
                <mxCell id="nMISC580ioCfnprnbkIm-7" value="True" style="text;html=1;strokeColor=none;fillColor=none;align=center;verticalAlign=middle;whiteSpace=wrap;rounded=0;" vertex="1" parent="gkEWDCdBUT4R6ykhKJdt-1">
                    <mxGeometry x="540" y="580" width="60" height="30" as="geometry"/>
                </mxCell>
                <mxCell id="nMISC580ioCfnprnbkIm-10" value="False" style="text;html=1;strokeColor=none;fillColor=none;align=center;verticalAlign=middle;whiteSpace=wrap;rounded=0;" vertex="1" parent="gkEWDCdBUT4R6ykhKJdt-1">
                    <mxGeometry x="370" y="240" width="60" height="30" as="geometry"/>
                </mxCell>
                <mxCell id="nMISC580ioCfnprnbkIm-11" value="False" style="text;html=1;strokeColor=none;fillColor=none;align=center;verticalAlign=middle;whiteSpace=wrap;rounded=0;" vertex="1" parent="gkEWDCdBUT4R6ykhKJdt-1">
                    <mxGeometry x="380" y="440" width="60" height="30" as="geometry"/>
                </mxCell>
            </root>
        </mxGraphModel>
    </diagram>
    <diagram name="Caso 2" id="vfJ4_v6YK8_vEefMX_T-">
        <mxGraphModel dx="2073" dy="893" grid="1" gridSize="10" guides="1" tooltips="1" connect="1" arrows="1" fold="1" page="1" pageScale="1" pageWidth="827" pageHeight="1169" math="0" shadow="0">
            <root>
                <mxCell id="xB88r-SZZcdFh0DlApRr-0"/>
                <mxCell id="xB88r-SZZcdFh0DlApRr-1" parent="xB88r-SZZcdFh0DlApRr-0"/>
                <mxCell id="xB88r-SZZcdFh0DlApRr-2" value="" style="edgeStyle=none;html=1;fillColor=#60a917;strokeColor=#2D7600;" edge="1" parent="xB88r-SZZcdFh0DlApRr-1" source="xB88r-SZZcdFh0DlApRr-3" target="xB88r-SZZcdFh0DlApRr-5">
                    <mxGeometry relative="1" as="geometry"/>
                </mxCell>
                <mxCell id="xB88r-SZZcdFh0DlApRr-3" value="m_t = transponer(m)" style="ellipse;whiteSpace=wrap;html=1;fillColor=#60a917;fontColor=#ffffff;strokeColor=#2D7600;" vertex="1" parent="xB88r-SZZcdFh0DlApRr-1">
                    <mxGeometry x="270" y="30" width="120" height="80" as="geometry"/>
                </mxCell>
                <mxCell id="xB88r-SZZcdFh0DlApRr-4" value="" style="edgeStyle=none;html=1;fillColor=#60a917;strokeColor=#2D7600;" edge="1" parent="xB88r-SZZcdFh0DlApRr-1" source="xB88r-SZZcdFh0DlApRr-5" target="xB88r-SZZcdFh0DlApRr-9">
                    <mxGeometry relative="1" as="geometry"/>
                </mxCell>
                <mxCell id="xB88r-SZZcdFh0DlApRr-5" value="INIT i = 0" style="whiteSpace=wrap;html=1;fillColor=#60a917;fontColor=#ffffff;strokeColor=#2D7600;" vertex="1" parent="xB88r-SZZcdFh0DlApRr-1">
                    <mxGeometry x="270" y="140" width="120" height="60" as="geometry"/>
                </mxCell>
                <mxCell id="xB88r-SZZcdFh0DlApRr-6" value="" style="edgeStyle=none;html=1;fillColor=#60a917;strokeColor=#2D7600;" edge="1" parent="xB88r-SZZcdFh0DlApRr-1" source="xB88r-SZZcdFh0DlApRr-9" target="xB88r-SZZcdFh0DlApRr-11">
                    <mxGeometry relative="1" as="geometry"/>
                </mxCell>
                <mxCell id="xB88r-SZZcdFh0DlApRr-7" value="" style="edgeStyle=none;html=1;fillColor=#a20025;strokeColor=#6F0000;startArrow=none;" edge="1" parent="xB88r-SZZcdFh0DlApRr-1" target="xB88r-SZZcdFh0DlApRr-24">
                    <mxGeometry relative="1" as="geometry">
                        <mxPoint x="430" y="270" as="sourcePoint"/>
                    </mxGeometry>
                </mxCell>
                <mxCell id="xB88r-SZZcdFh0DlApRr-8" style="edgeStyle=none;html=1;exitX=1;exitY=0.5;exitDx=0;exitDy=0;entryX=0;entryY=0.5;entryDx=0;entryDy=0;fillColor=#60a917;strokeColor=#2D7600;" edge="1" parent="xB88r-SZZcdFh0DlApRr-1" source="xB88r-SZZcdFh0DlApRr-9" target="xB88r-SZZcdFh0DlApRr-24">
                    <mxGeometry relative="1" as="geometry"/>
                </mxCell>
                <mxCell id="xB88r-SZZcdFh0DlApRr-9" value="i &amp;lt; len(m)" style="ellipse;whiteSpace=wrap;html=1;fillColor=#60a917;fontColor=#ffffff;strokeColor=#2D7600;" vertex="1" parent="xB88r-SZZcdFh0DlApRr-1">
                    <mxGeometry x="290" y="230" width="80" height="80" as="geometry"/>
                </mxCell>
                <mxCell id="xB88r-SZZcdFh0DlApRr-10" value="" style="edgeStyle=none;html=1;fillColor=#60a917;strokeColor=#2D7600;" edge="1" parent="xB88r-SZZcdFh0DlApRr-1" source="xB88r-SZZcdFh0DlApRr-11" target="xB88r-SZZcdFh0DlApRr-14">
                    <mxGeometry relative="1" as="geometry"/>
                </mxCell>
                <mxCell id="xB88r-SZZcdFh0DlApRr-11" value="INIT n = 1" style="whiteSpace=wrap;html=1;fillColor=#60a917;fontColor=#ffffff;strokeColor=#2D7600;" vertex="1" parent="xB88r-SZZcdFh0DlApRr-1">
                    <mxGeometry x="270" y="340" width="120" height="60" as="geometry"/>
                </mxCell>
                <mxCell id="xB88r-SZZcdFh0DlApRr-12" value="" style="edgeStyle=none;html=1;fillColor=#60a917;strokeColor=#2D7600;" edge="1" parent="xB88r-SZZcdFh0DlApRr-1" source="xB88r-SZZcdFh0DlApRr-14" target="xB88r-SZZcdFh0DlApRr-17">
                    <mxGeometry relative="1" as="geometry"/>
                </mxCell>
                <mxCell id="xB88r-SZZcdFh0DlApRr-13" value="" style="edgeStyle=none;html=1;fillColor=#60a917;strokeColor=#2D7600;startArrow=none;" edge="1" parent="xB88r-SZZcdFh0DlApRr-1" target="xB88r-SZZcdFh0DlApRr-23">
                    <mxGeometry relative="1" as="geometry">
                        <Array as="points">
                            <mxPoint x="780" y="470"/>
                        </Array>
                        <mxPoint x="460" y="470" as="sourcePoint"/>
                    </mxGeometry>
                </mxCell>
                <mxCell id="xB88r-SZZcdFh0DlApRr-14" value="n &amp;lt; 10" style="ellipse;whiteSpace=wrap;html=1;fillColor=#60a917;fontColor=#ffffff;strokeColor=#2D7600;" vertex="1" parent="xB88r-SZZcdFh0DlApRr-1">
                    <mxGeometry x="290" y="430" width="80" height="80" as="geometry"/>
                </mxCell>
                <mxCell id="xB88r-SZZcdFh0DlApRr-15" value="" style="edgeStyle=none;html=1;fillColor=#a20025;strokeColor=#6F0000;entryX=0;entryY=0.5;entryDx=0;entryDy=0;" edge="1" parent="xB88r-SZZcdFh0DlApRr-1" source="xB88r-SZZcdFh0DlApRr-17" target="xB88r-SZZcdFh0DlApRr-18">
                    <mxGeometry relative="1" as="geometry">
                        <mxPoint x="640" y="610" as="targetPoint"/>
                    </mxGeometry>
                </mxCell>
                <mxCell id="xB88r-SZZcdFh0DlApRr-16" value="" style="edgeStyle=none;html=1;fillColor=#60a917;strokeColor=#2D7600;" edge="1" parent="xB88r-SZZcdFh0DlApRr-1" source="xB88r-SZZcdFh0DlApRr-17" target="xB88r-SZZcdFh0DlApRr-21">
                    <mxGeometry relative="1" as="geometry"/>
                </mxCell>
                <mxCell id="xB88r-SZZcdFh0DlApRr-17" value="if cantidad_apariciones(m[i],n) &amp;gt; 1 or cantidad_apariciones(m_t[i],n) &amp;gt; 1" style="ellipse;whiteSpace=wrap;html=1;fillColor=#60a917;fontColor=#ffffff;strokeColor=#2D7600;" vertex="1" parent="xB88r-SZZcdFh0DlApRr-1">
                    <mxGeometry x="120" y="570" width="420" height="80" as="geometry"/>
                </mxCell>
                <mxCell id="xB88r-SZZcdFh0DlApRr-18" value="return False" style="whiteSpace=wrap;html=1;fillColor=#a20025;fontColor=#ffffff;strokeColor=#6F0000;" vertex="1" parent="xB88r-SZZcdFh0DlApRr-1">
                    <mxGeometry x="600" y="580" width="120" height="60" as="geometry"/>
                </mxCell>
                <mxCell id="xB88r-SZZcdFh0DlApRr-19" value="True" style="text;html=1;strokeColor=none;fillColor=none;align=center;verticalAlign=middle;whiteSpace=wrap;rounded=0;" vertex="1" parent="xB88r-SZZcdFh0DlApRr-1">
                    <mxGeometry x="320" y="520" width="60" height="30" as="geometry"/>
                </mxCell>
                <mxCell id="xB88r-SZZcdFh0DlApRr-20" style="edgeStyle=none;html=1;entryX=0;entryY=0.5;entryDx=0;entryDy=0;fillColor=#60a917;strokeColor=#2D7600;" edge="1" parent="xB88r-SZZcdFh0DlApRr-1" source="xB88r-SZZcdFh0DlApRr-21" target="xB88r-SZZcdFh0DlApRr-14">
                    <mxGeometry relative="1" as="geometry">
                        <Array as="points">
                            <mxPoint x="140" y="770"/>
                            <mxPoint x="80" y="770"/>
                            <mxPoint x="80" y="620"/>
                            <mxPoint x="80" y="470"/>
                        </Array>
                    </mxGeometry>
                </mxCell>
                <mxCell id="xB88r-SZZcdFh0DlApRr-21" value="n += 1" style="rhombus;whiteSpace=wrap;html=1;fillColor=#60a917;fontColor=#ffffff;strokeColor=#2D7600;" vertex="1" parent="xB88r-SZZcdFh0DlApRr-1">
                    <mxGeometry x="290" y="730" width="80" height="80" as="geometry"/>
                </mxCell>
                <mxCell id="xB88r-SZZcdFh0DlApRr-22" style="edgeStyle=none;html=1;entryX=0;entryY=0.5;entryDx=0;entryDy=0;fillColor=#60a917;strokeColor=#2D7600;" edge="1" parent="xB88r-SZZcdFh0DlApRr-1" source="xB88r-SZZcdFh0DlApRr-23" target="xB88r-SZZcdFh0DlApRr-9">
                    <mxGeometry relative="1" as="geometry">
                        <Array as="points">
                            <mxPoint x="780" y="900"/>
                            <mxPoint x="40" y="900"/>
                            <mxPoint x="40" y="270"/>
                        </Array>
                    </mxGeometry>
                </mxCell>
                <mxCell id="xB88r-SZZcdFh0DlApRr-23" value="i += 1" style="rhombus;whiteSpace=wrap;html=1;fillColor=#60a917;fontColor=#ffffff;strokeColor=#2D7600;" vertex="1" parent="xB88r-SZZcdFh0DlApRr-1">
                    <mxGeometry x="740" y="700" width="80" height="80" as="geometry"/>
                </mxCell>
                <mxCell id="xB88r-SZZcdFh0DlApRr-24" value="return True" style="whiteSpace=wrap;html=1;fillColor=#60a917;fontColor=#ffffff;strokeColor=#2D7600;" vertex="1" parent="xB88r-SZZcdFh0DlApRr-1">
                    <mxGeometry x="430" y="240" width="120" height="60" as="geometry"/>
                </mxCell>
                <mxCell id="xB88r-SZZcdFh0DlApRr-25" value="True" style="text;html=1;strokeColor=none;fillColor=none;align=center;verticalAlign=middle;whiteSpace=wrap;rounded=0;" vertex="1" parent="xB88r-SZZcdFh0DlApRr-1">
                    <mxGeometry x="320" y="310" width="60" height="30" as="geometry"/>
                </mxCell>
                <mxCell id="xB88r-SZZcdFh0DlApRr-26" value="False" style="text;html=1;strokeColor=none;fillColor=none;align=center;verticalAlign=middle;whiteSpace=wrap;rounded=0;" vertex="1" parent="xB88r-SZZcdFh0DlApRr-1">
                    <mxGeometry x="320" y="680" width="60" height="30" as="geometry"/>
                </mxCell>
                <mxCell id="xB88r-SZZcdFh0DlApRr-27" value="" style="edgeStyle=none;html=1;fillColor=#60a917;strokeColor=#2D7600;endArrow=none;" edge="1" parent="xB88r-SZZcdFh0DlApRr-1" source="xB88r-SZZcdFh0DlApRr-14">
                    <mxGeometry relative="1" as="geometry">
                        <Array as="points"/>
                        <mxPoint x="370" y="470" as="sourcePoint"/>
                        <mxPoint x="460" y="470" as="targetPoint"/>
                    </mxGeometry>
                </mxCell>
                <mxCell id="xB88r-SZZcdFh0DlApRr-28" value="" style="edgeStyle=none;html=1;fillColor=#a20025;strokeColor=#6F0000;endArrow=none;" edge="1" parent="xB88r-SZZcdFh0DlApRr-1" source="xB88r-SZZcdFh0DlApRr-9">
                    <mxGeometry relative="1" as="geometry">
                        <mxPoint x="370" y="270" as="sourcePoint"/>
                        <mxPoint x="370" y="270" as="targetPoint"/>
                    </mxGeometry>
                </mxCell>
                <mxCell id="xB88r-SZZcdFh0DlApRr-29" value="True" style="text;html=1;strokeColor=none;fillColor=none;align=center;verticalAlign=middle;whiteSpace=wrap;rounded=0;" vertex="1" parent="xB88r-SZZcdFh0DlApRr-1">
                    <mxGeometry x="540" y="580" width="60" height="30" as="geometry"/>
                </mxCell>
                <mxCell id="xB88r-SZZcdFh0DlApRr-30" value="False" style="text;html=1;strokeColor=none;fillColor=none;align=center;verticalAlign=middle;whiteSpace=wrap;rounded=0;" vertex="1" parent="xB88r-SZZcdFh0DlApRr-1">
                    <mxGeometry x="370" y="240" width="60" height="30" as="geometry"/>
                </mxCell>
                <mxCell id="xB88r-SZZcdFh0DlApRr-31" value="False" style="text;html=1;strokeColor=none;fillColor=none;align=center;verticalAlign=middle;whiteSpace=wrap;rounded=0;" vertex="1" parent="xB88r-SZZcdFh0DlApRr-1">
                    <mxGeometry x="380" y="440" width="60" height="30" as="geometry"/>
                </mxCell>
            </root>
        </mxGraphModel>
    </diagram>
</mxfile>